<?xml version="1.0" standalone="no"?>
<!DOCTYPE svg PUBLIC "-//W3C//DTD SVG 20010904//EN"
 "http://www.w3.org/TR/2001/REC-SVG-20010904/DTD/svg10.dtd">
<svg version="1.0" xmlns="http://www.w3.org/2000/svg"
 width="512.000000pt" height="512.000000pt" viewBox="0 0 512.000000 512.000000"
 preserveAspectRatio="xMidYMid meet">

<g transform="translate(0.000000,512.000000) scale(0.100000,-0.100000)"
fill="#000000" stroke="none">
<path d="M1 3438 c0 -926 2 -1678 4 -1673 3 6 27 87 55 180 190 632 499 1242
900 1774 182 241 268 340 479 553 141 141 206 214 231 259 52 92 100 154 198
252 137 139 311 247 498 312 l69 24 -1217 0 -1218 1 1 -1682z"/>
<path d="M2848 4757 c350 -350 363 -365 360 -398 -3 -32 -21 -48 -298 -257
-162 -123 -305 -227 -318 -232 -34 -14 -60 4 -122 81 -30 38 -65 72 -78 75
-14 4 -45 -3 -80 -19 -77 -34 -145 -54 -222 -67 -103 -17 -110 -19 -120 -43
-6 -12 -39 -274 -75 -582 -36 -308 -67 -581 -71 -607 -13 -107 14 -119 167
-68 209 70 311 85 579 85 204 -1 248 -4 337 -23 148 -32 272 -75 413 -143 85
-41 132 -58 147 -54 16 4 35 29 64 88 67 133 135 225 248 338 287 285 693 449
1203 484 89 6 98 5 117 -14 l21 -21 0 870 0 870 -1318 0 -1318 0 364 -363z"/>
<path d="M0 833 l0 -833 2293 1 c1912 1 2280 3 2220 14 -209 38 -399 147 -568
327 -141 149 -238 303 -337 528 -27 63 -55 118 -61 122 -23 15 -55 8 -132 -28
-177 -82 -468 -157 -715 -185 -152 -17 -479 -14 -645 5 -254 30 -511 91 -748
177 -264 96 -639 305 -841 470 -142 115 -128 109 -241 109 -119 0 -165 20
-202 85 l-23 40 0 -832z"/>
<path d="M5098 19 c-17 -18 -17 -19 2 -19 13 0 20 7 20 20 0 24 0 24 -22 -1z"/>
</g>
</svg>
